<?xml version="1.0" standalone="no"?>
<!DOCTYPE svg PUBLIC "-//W3C//DTD SVG 20010904//EN"
 "http://www.w3.org/TR/2001/REC-SVG-20010904/DTD/svg10.dtd">
<svg version="1.0" xmlns="http://www.w3.org/2000/svg"
 width="512.000000pt" height="512.000000pt" viewBox="0 0 512.000000 512.000000"
 preserveAspectRatio="xMidYMid meet">
<metadata>
Created by potrace 1.11, written by Peter Selinger 2001-2013
</metadata>
<g transform="translate(0.000000,512.000000) scale(0.100000,-0.100000)"
fill="#000000" stroke="none">
<path d="M0 2560 l0 -2560 2560 0 2560 0 0 2560 0 2560 -2560 0 -2560 0 0
-2560z m4250 210 l0 -961 -142 3 -143 3 -3 35 c-1 19 -5 45 -8 58 -5 22 -6 22
-51 -17 -85 -75 -184 -110 -314 -111 -168 0 -309 76 -402 218 -90 137 -127
281 -127 496 0 252 60 428 189 557 100 99 196 138 341 139 127 0 229 -36 315
-112 l35 -30 0 341 0 341 155 0 155 0 0 -960z m-2674 170 c142 -379 261 -690
264 -690 3 0 111 283 239 628 129 345 246 655 259 690 l24 62 204 0 204 0 0
-910 0 -910 -155 0 -155 0 0 380 c0 209 5 492 11 628 18 426 43 458 -256 -326
l-260 -682 -117 0 -116 0 -10 28 c-23 63 -475 1242 -497 1297 l-25 60 5 -100
c17 -319 25 -635 25 -940 l0 -345 -160 0 -160 0 0 910 0 910 209 0 208 0 259
-690z m3424 -2660 l0 -160 -2440 0 -2440 0 0 160 0 160 2440 0 2440 0 0 -160z"/>
<path d="M3588 2917 c-26 -8 -55 -20 -65 -27 -114 -87 -154 -195 -153 -418 0
-176 26 -265 100 -346 53 -58 113 -81 205 -80 106 1 176 36 236 118 l29 39 0
279 c0 223 -3 285 -14 307 -20 37 -90 100 -133 117 -50 21 -150 26 -205 11z"/>
</g>
</svg>
