<svg id="LOGO_PROTOTYP" data-name="LOGO PROTOTYP" xmlns="http://www.w3.org/2000/svg" xmlns:xlink="http://www.w3.org/1999/xlink" viewBox="0 0 220 80"><defs><style>.cls-1{opacity:0.05;}.cls-2{fill:#fff;}.cls-3{fill:url(#linear-gradient);}.cls-4{fill:url(#linear-gradient-2);}</style><linearGradient id="linear-gradient" x1="23.78" y1="46.51" x2="23.78" y2="88.28" gradientUnits="userSpaceOnUse"><stop offset="0" stop-color="#fff" stop-opacity="0.3"/><stop offset="0.02" stop-color="#fff" stop-opacity="0.28"/><stop offset="0.28" stop-color="#fff" stop-opacity="0.13"/><stop offset="0.48" stop-color="#fff" stop-opacity="0.04"/><stop offset="0.6" stop-color="#fff" stop-opacity="0"/></linearGradient><linearGradient id="linear-gradient-2" x1="42.5" y1="52.36" x2="42.5" y2="93.49" gradientUnits="userSpaceOnUse"><stop offset="0" stop-color="#fff" stop-opacity="0.2"/><stop offset="0.14" stop-color="#fff" stop-opacity="0.13"/><stop offset="0.36" stop-color="#fff" stop-opacity="0.04"/><stop offset="0.5" stop-color="#fff" stop-opacity="0"/></linearGradient></defs><title>Zeichenfläche 4</title><ellipse class="cls-1" cx="28.75" cy="48.2" rx="24.63" ry="3.38"/><g id="SMASHING_SCHRIFTZUG" data-name="SMASHING SCHRIFTZUG"><path id="SMASHING" class="cls-2" d="M195.45,15.65A10.89,10.89,0,0,1,216,10.56l-4,1.3a6.78,6.78,0,1,0-.44,8.16l-2.38.39-2.89-2.89,6.22-1,6.23-1-1,6.22-1,6.22L213.77,25l.28-1.71a10.89,10.89,0,0,1-18.6-7.68ZM69.6,18.89a7,7,0,0,0,.71,3.39,6.74,6.74,0,0,0,2,2.35A8.56,8.56,0,0,0,75.23,26a13.16,13.16,0,0,0,3.42.45,12.92,12.92,0,0,0,3.81-.5,8.1,8.1,0,0,0,2.77-1.4,5.92,5.92,0,0,0,1.69-2.17,6.53,6.53,0,0,0,.57-2.71,5.08,5.08,0,0,0-.78-2.92,6.07,6.07,0,0,0-1.78-1.84,7.46,7.46,0,0,0-2.11-1,16.38,16.38,0,0,0-1.64-.45l-3.25-.83A12.79,12.79,0,0,1,76,12a2.13,2.13,0,0,1-.92-.71,1.9,1.9,0,0,1-.24-1,2,2,0,0,1,.3-1.13,2.73,2.73,0,0,1,.74-.74,3.23,3.23,0,0,1,1-.42,5.48,5.48,0,0,1,1.13-.12A7.68,7.68,0,0,1,79.63,8a3.79,3.79,0,0,1,1.31.51,2.47,2.47,0,0,1,.89,1A3.58,3.58,0,0,1,82.25,11h4.52a6.34,6.34,0,0,0-.71-3.13,5.91,5.91,0,0,0-1.87-2.14,7.72,7.72,0,0,0-2.74-1.19,12.77,12.77,0,0,0-3.18-.39,10.82,10.82,0,0,0-2.86.39,8,8,0,0,0-2.56,1.19,6.46,6.46,0,0,0-1.85,2,5.57,5.57,0,0,0-.68,2.83,5.39,5.39,0,0,0,.54,2.5,5.41,5.41,0,0,0,1.46,1.7,8.16,8.16,0,0,0,2,1.13,21.49,21.49,0,0,0,2.32.72c.77.22,1.54.42,2.29.59a15,15,0,0,1,2,.63,4.28,4.28,0,0,1,1.43.89,1.84,1.84,0,0,1,.57,1.4,2.12,2.12,0,0,1-.42,1.34,3,3,0,0,1-1,.8,4.89,4.89,0,0,1-1.34.42,10.82,10.82,0,0,1-1.34.09A7.71,7.71,0,0,1,77,22.61a5.2,5.2,0,0,1-1.52-.68,3.55,3.55,0,0,1-1-1.22,3.88,3.88,0,0,1-.39-1.81Zm51.88-9,2.68,7.8h-5.5ZM111.16,25.69V4.7h-6.58L99.82,19.31l-5-14.61H88.28V25.94h4.37L92.71,11l5.21,14.91h3.6l5.27-15.06V25.94h9l1.67-4.73h7.94l1.6,4.73h4.85L123.89,4.7H119.1Zm19.2-6.79a7,7,0,0,0,.72,3.39,6.77,6.77,0,0,0,2,2.35A8.57,8.57,0,0,0,136,26a13.15,13.15,0,0,0,3.42.45,13,13,0,0,0,3.81-.5,8.1,8.1,0,0,0,2.77-1.4,5.89,5.89,0,0,0,1.7-2.17,6.48,6.48,0,0,0,.56-2.71,5.06,5.06,0,0,0-.77-2.92,6.09,6.09,0,0,0-1.79-1.84,7.45,7.45,0,0,0-2.11-1,16,16,0,0,0-1.64-.45l-3.24-.83a12.91,12.91,0,0,1-1.94-.66,2.14,2.14,0,0,1-.92-.71,1.9,1.9,0,0,1-.24-1,2,2,0,0,1,.3-1.13,2.69,2.69,0,0,1,.74-.74,3.21,3.21,0,0,1,1-.42,5.48,5.48,0,0,1,1.13-.12,7.69,7.69,0,0,1,1.58.15,3.79,3.79,0,0,1,1.31.51,2.49,2.49,0,0,1,.89,1A3.64,3.64,0,0,1,143,11h4.52a6.33,6.33,0,0,0-.72-3.13,5.88,5.88,0,0,0-1.87-2.14,7.7,7.7,0,0,0-2.74-1.19A12.76,12.76,0,0,0,139,4.19a10.82,10.82,0,0,0-2.86.39,8,8,0,0,0-2.56,1.19,6.43,6.43,0,0,0-1.84,2,5.57,5.57,0,0,0-.68,2.83,5.37,5.37,0,0,0,.54,2.5,5.43,5.43,0,0,0,1.46,1.7,8.27,8.27,0,0,0,2,1.13,21.84,21.84,0,0,0,2.32.72c.77.22,1.54.42,2.29.59a14.92,14.92,0,0,1,2,.63,4.26,4.26,0,0,1,1.43.89,1.85,1.85,0,0,1,.56,1.4,2.14,2.14,0,0,1-.42,1.34,3,3,0,0,1-1,.8,4.91,4.91,0,0,1-1.34.42,10.82,10.82,0,0,1-1.34.09,7.69,7.69,0,0,1-1.78-.21,5.18,5.18,0,0,1-1.52-.68,3.59,3.59,0,0,1-1-1.22,3.89,3.89,0,0,1-.39-1.81Zm18.68,7h4.67V16.78h8.6v9.16H167V4.7h-4.67v8.15h-8.6V4.7H149Zm20.07,0h4.67V4.7h-4.67Zm6.81,0h4.37l.06-14.22,8.84,14.22h4.67V4.7h-4.38L189.43,19,180.57,4.7h-4.64Z"/></g><g id="S"><g id="Kasten"><path class="cls-2" d="M36.57,30.11a27.55,27.55,0,0,0-7-3.78,28.32,28.32,0,0,1-5.36-2.87q-6-4.18-6-10.37A10.63,10.63,0,0,1,20.4,6.19a10.19,10.19,0,0,1,.86-.94l-8.55,2a4.62,4.62,0,0,0-3.46,5.54l7.08,30.59a4.62,4.62,0,0,0,5.53,3.46L25.36,46l-.27-.07A33.76,33.76,0,0,1,18.31,43L22,34.84a16.3,16.3,0,0,0,10.4,3.66c4,0,6-1.43,6-4.27A5.26,5.26,0,0,0,36.57,30.11Z"/><path class="cls-2" d="M55.91,34.22,48.83,3.63A4.62,4.62,0,0,0,43.3.17L38.15,1.36q.89.14,1.76.33a28.13,28.13,0,0,1,6.65,2.39l-3,8c-2.24-1.92-5.37-2.88-9.37-2.88q-5.38,0-5.39,4.28a3.86,3.86,0,0,0,1.77,3,36.82,36.82,0,0,0,7.56,3.66,23.64,23.64,0,0,1,6.39,3.55,12.68,12.68,0,0,1,2,2,12.35,12.35,0,0,1,2.55,7.85,11.85,11.85,0,0,1-2.45,7.58l5.83-1.35A4.61,4.61,0,0,0,55.91,34.22Z"/></g></g><g id="S-2" data-name="S"><g id="Kasten-2" data-name="Kasten"><path class="cls-3" d="M32.42,55A16.34,16.34,0,0,0,22,58.63l-3.67-8.19a33.83,33.83,0,0,1,6.8-2.93l.27-.07-3.51-.81a4.63,4.63,0,0,0-5.55,3.47L9.25,80.76a4.63,4.63,0,0,0,3.47,5.55l8.56,2a10.22,10.22,0,0,1-.86-.95,10.66,10.66,0,0,1-2.25-6.9q0-6.2,6-10.39a28.38,28.38,0,0,1,5.37-2.88,27.61,27.61,0,0,0,7.06-3.79,5.27,5.27,0,0,0,1.81-4.12C38.43,56.4,36.43,55,32.42,55Z"/><path class="cls-4" d="M52.53,53.7l-5.84-1.35A11.87,11.87,0,0,1,49.15,60a12.37,12.37,0,0,1-2.56,7.87,12.71,12.71,0,0,1-2,2,23.69,23.69,0,0,1-6.41,3.56A36.89,36.89,0,0,0,30.65,77a3.87,3.87,0,0,0-1.78,3q0,4.28,5.4,4.29c4,0,7.15-1,9.39-2.89l3,8A28.19,28.19,0,0,1,40,91.85q-.87.19-1.76.33l5.16,1.19a4.63,4.63,0,0,0,5.55-3.46L56,59.25A4.62,4.62,0,0,0,52.53,53.7Z"/></g></g><g id="Text_MAGAZINE" data-name="Text MAGAZINE"><path class="cls-2" d="M72.5,33h1.72l4.24,10.94L82.68,33h1.72V45.46H83.23V34.68h0L79,45.46h-1.1L73.7,34.68h0V45.46H72.5Z"/><path class="cls-2" d="M93.85,33h1.3L100,45.46H98.71l-1.49-3.88H91.64l-1.48,3.88H88.91ZM92,40.57h4.82l-2.37-6.4Z"/><path class="cls-2" d="M115,45.46h-.84L114,43.19h0a4.42,4.42,0,0,1-4.24,2.53c-3.86,0-5.78-3.09-5.78-6.5s1.92-6.5,5.78-6.5a4.82,4.82,0,0,1,5.12,4.14h-1.17a3.84,3.84,0,0,0-3.95-3.13c-3.24,0-4.62,2.76-4.62,5.49s1.37,5.49,4.62,5.49c2.71,0,4.29-1.94,4.24-4.58h-4.17v-1H115Z"/><path class="cls-2" d="M124.25,33h1.3l4.81,12.47h-1.25l-1.49-3.88H122l-1.48,3.88h-1.25Zm-1.85,7.58h4.82l-2.37-6.4Z"/><path class="cls-2" d="M134.31,33h8.82v1l-8.07,10.41h8.24v1h-9.54v-1L141.83,34h-7.52Z"/><path class="cls-2" d="M148.28,33h1.17V45.46h-1.17Z"/><path class="cls-2" d="M155.42,33h1.3l7.14,10.55h0V33h1.17V45.46h-1.3l-7.14-10.55h0V45.46h-1.17Z"/><path class="cls-2" d="M171,33h8.46v1h-7.3v4.51H179v1h-6.83v4.93h7.38v1H171Z"/></g></svg>